# xmcd
#
# Track frame offsets: 
#        150
#        16450
#        41217
#        63150
#        105847
#        120892
#        142415
#
# Disc length: 2336 seconds
#
# Revision: 1
# Processed by: cddbd v1.5.2PL0 Copyright (c) Steve Scherf et al.
# Submitted via: ExactAudioCopy v0.99pb5
#
DISCID=58091e07
DTITLE=The David Nelson Band - Limited Edition
DYEAR=1995
DGENRE=Rock
TTITLE0=Yvonne
TTITLE1=John Hardy's Wedding
TTITLE2=Born Sidestepper
TTITLE3=The Wizards's Son
TTITLE4=Freight Train Boogie
TTITLE5=Extra Sox
TTITLE6=Four:Fifty-One
EXTD=
EXTT0=
EXTT1=
EXTT2=
EXTT3=
EXTT4=
EXTT5=
EXTT6=
PLAYORDER=
